<svg width="28" height="35" viewBox="0 0 28 35" fill="none" xmlns="http://www.w3.org/2000/svg">
<path d="M13.6744 14.7221C17.3193 14.7221 20.2741 11.7174 20.2741 8.01097C20.2741 4.30449 17.3193 1.2998 13.6744 1.2998C10.0294 1.2998 7.07458 4.30449 7.07458 8.01097C7.07458 11.7174 10.0294 14.7221 13.6744 14.7221Z" stroke="#6F6E7C" stroke-width="1.98" stroke-miterlimit="10"/>
<path d="M2.76366 32.1989C2.26591 32.0235 1.84242 31.6798 1.56396 31.225C1.2855 30.7703 1.16894 30.2322 1.23377 29.7006C1.56556 26.5826 3.01857 23.6992 5.31369 21.6043C7.60882 19.5093 10.5842 18.3506 13.6684 18.3506C16.7525 18.3506 19.7279 19.5093 22.023 21.6043C24.3181 23.6992 25.7712 26.5826 26.1029 29.7006C26.1604 30.2254 26.0416 30.7545 25.7659 31.2019C25.4902 31.6492 25.0737 31.9886 24.5842 32.1648C23.0097 32.7099 19.8829 33.3004 13.6739 33.3004C7.46502 33.3004 4.33823 32.7439 2.76366 32.1989Z" stroke="#6F6E7C" stroke-width="1.8" stroke-miterlimit="10"/>
</svg>
